# xmcd
#
# Track frame offsets:
#	150
#	15872
#	30267
#	49077
#	62286
#	75360
#	92262
#	107454
#	122732
#	135650
#	149266
#	165234
#	182535
#
# Disc length: 2643 seconds
#
# Revision: 1
# Processed by: cddbd v1.5.2PL0 Copyright (c) Steve Scherf et al.
# Submitted via: audiograbber 1.80
#
DISCID=830a510d
DTITLE=Mike Denver - Seasons In The Sun
DYEAR=1900
DGENRE=
TTITLE0=Pay me my money down(MASTER)
TTITLE1=Home(MASTER)
TTITLE2=Waltzing together(MASTER)
TTITLE3=Walk in the room(MASTER)
TTITLE4=Sentimental Irish(MASTER)
TTITLE5=I can't stop loving you(MASTER)
TTITLE6=In my woman's eyes(MASTER)
TTITLE7=The ring your mother wore(MASTER)
TTITLE8=Steppin all over my heart(MASTER)
TTITLE9=Pretty little thing(MASTER)
TTITLE10=If you think you're lonely(MASTER)
TTITLE11=Joe(MASTER)
TTITLE12=Seasons in the sun(MASTER)
EXTD=
EXTT0=
EXTT1=
EXTT2=
EXTT3=
EXTT4=
EXTT5=
EXTT6=
EXTT7=
EXTT8=
EXTT9=
EXTT10=
EXTT11=
EXTT12=
PLAYORDER=
